{"title":"Jacks.POV.14.XXX.BDRip.XviD-STARLETS","uid":7861720,"size":1466142720,"categoryP":"porn","categoryS":"movies","magnet":"?xt=urn:btih:829ad651146d15c013c0946b30e05841f5928cf3&amp;dn=Jacks.POV.14.XXX.BDRip.XviD-STARLETS&amp;tr=udp%3A%2F%2Ftracker.openbittorrent.com%3A80&amp;tr=udp%3A%2F%2Fopen.demonii.com%3A1337&amp;tr=udp%3A%2F%2Ftracker.coppersurfer.tk%3A6969&amp;tr=udp%3A%2F%2Fexodus.desync.com%3A6969","seeders":0,"leechers":1,"uploader":"R0thschild","files":3,"time":1353948755,"description":"Gallery: \n &lt;a href=&quot;\nhttp://imagedomino.com/?g=298222&quot; rel=&quot;nofollow&quot; target=&quot;_NEW&quot;&gt;\nhttp://imagedomino.com/?g=298222&lt;/a&gt;\n\nStudio\nDigital Playground\nStarring\nAlexis Texas, Nicole Ray, Kristina Rose, Riley Steele, Codi Carmichael\nGenre\nGonzo, All Sex, POV\nDescription\nWith its unique camera work, &quot;Jack's POV 14&quot; brings you into the action and doesn't loosen its grip until you're completely drained. &quot;Jack's POV 14&quot;, starring Digital Playground's beautiful contract girl Riley Steele gives you the best action, the most delicious teases, and pure in-your-face comedy. It's your job to cast sexy, young women like Riley Steele in music videos, resulting in you nailing gorgeous ass after even more succulent pussy. Let Jack's camera tease and tempt you, offering the finest bush on the planet, all in first hand perspective.\n\nDuration                         : 1h 2mn\nBit rate                         : 1 440 Kbps\nWidth                            : 624 pixels\nHeight                           : 352 pixels\nDisplay aspect ratio             : 16:9\nFrame rate                       : 29.970 fps\nColor space                      : YUV\nChroma subsampling               : 4:2:0\nBit depth                        : 8 bits\nScan type                        : Progressive\nCompression mode                 : Lossy\nBits/(Pixel*Frame)               : 0.219\nStream size                      : 640 MiB (91%)\n\nDuration                         : 1h 17mn\nBit rate                         : 1 126 Kbps\nWidth                            : 624 pixels\nHeight                           : 352 pixels\nDisplay aspect ratio             : 16:9\nFrame rate                       : 29.970 fps\nColor space                      : YUV\nChroma subsampling               : 4:2:0\nBit depth                        : 8 bits\nScan type                        : Progressive\nCompression mode                 : Lossy\nBits/(Pixel*Frame)               : 0.171\nStream size                      : 624 MiB (89%)","torrent":{"xt":"urn:btih:829ad651146d15c013c0946b30e05841f5928cf3","amp;dn":"Jacks.POV.14.XXX.BDRip.XviD-STARLETS","amp;tr":["udp%3A%2F%2Ftracker.openbittorrent.com%3A80","udp%3A%2F%2Fopen.demonii.com%3A1337","udp%3A%2F%2Ftracker.coppersurfer.tk%3A6969","udp%3A%2F%2Fexodus.desync.com%3A6969"],"infoHash":"829ad651146d15c013c0946b30e05841f5928cf3","infoHashBuffer":{"type":"Buffer","data":[130,154,214,81,20,109,21,192,19,192,148,107,48,224,88,65,245,146,140,243]},"announce":[],"urlList":[]}}